<?xml version="1.0" encoding="UTF-8"?>
<!DOCTYPE svg PUBLIC "-//W3C//DTD SVG 1.1//EN" "http://www.w3.org/Graphics/SVG/1.1/DTD/svg11.dtd">
<svg xmlns="http://www.w3.org/2000/svg" version="1.1" width="512px" height="512px" style="shape-rendering:geometricPrecision; text-rendering:geometricPrecision; image-rendering:optimizeQuality; fill-rule:evenodd; clip-rule:evenodd" xmlns:xlink="http://www.w3.org/1999/xlink">
<g><path style="opacity:0.995" fill="#e5f4ff" d="M 462.5,44.5 C 324.874,43.5033 187.207,43.17 49.5,43.5C 64.5953,29.1202 82.5953,20.2869 103.5,17C 154.103,13.4547 204.77,11.9547 255.5,12.5C 306.232,11.9355 356.899,13.4355 407.5,17C 428.904,20.3686 447.237,29.5352 462.5,44.5 Z"/></g>
<g><path style="opacity:0.998" fill="#e2f2ff" d="M 49.5,43.5 C 187.207,43.17 324.874,43.5033 462.5,44.5C 473.658,53.9928 481.658,65.6595 486.5,79.5C 332.43,79.8317 178.43,79.4984 24.5,78.5C 30.1245,64.8791 38.4579,53.2124 49.5,43.5 Z"/></g>
<g><path style="opacity:0.998" fill="#ddf0ff" d="M 24.5,78.5 C 178.43,79.4984 332.43,79.8317 486.5,79.5C 490.272,86.9885 492.772,94.9885 494,103.5C 494.966,114.835 495.8,126.168 496.5,137.5C 425.879,135.84 355.212,134.84 284.5,134.5C 284.821,129.305 284.487,124.305 283.5,119.5C 279.082,105.442 269.416,98.4418 254.5,98.5C 240.815,99.5059 231.815,106.506 227.5,119.5C 226.513,124.305 226.179,129.305 226.5,134.5C 155.931,135.831 85.2643,135.831 14.5,134.5C 15.299,124.222 16.1323,113.888 17,103.5C 18.4001,94.8029 20.9001,86.4696 24.5,78.5 Z"/></g>
<g><path style="opacity:1" fill="#446eff" d="M 283.5,119.5 C 283.5,120.833 283.5,122.167 283.5,123.5C 264.833,123.5 246.167,123.5 227.5,123.5C 227.5,122.167 227.5,120.833 227.5,119.5C 231.815,106.506 240.815,99.5059 254.5,98.5C 269.416,98.4418 279.082,105.442 283.5,119.5 Z"/></g>
<g><path style="opacity:1" fill="#3f74ff" d="M 227.5,119.5 C 227.5,120.833 227.5,122.167 227.5,123.5C 246.167,123.5 264.833,123.5 283.5,123.5C 283.5,122.167 283.5,120.833 283.5,119.5C 284.487,124.305 284.821,129.305 284.5,134.5C 283.086,136.867 281.752,139.367 280.5,142C 281.71,143.039 282.71,144.206 283.5,145.5C 264.833,146.833 246.167,146.833 227.5,145.5C 228.29,144.206 229.29,143.039 230.5,142C 229.248,139.367 227.914,136.867 226.5,134.5C 226.179,129.305 226.513,124.305 227.5,119.5 Z"/></g>
<g><path style="opacity:0.998" fill="#d7eeff" d="M 14.5,134.5 C 85.2643,135.831 155.931,135.831 226.5,134.5C 227.914,136.867 229.248,139.367 230.5,142C 229.29,143.039 228.29,144.206 227.5,145.5C 219.167,153.167 211.167,161.167 203.5,169.5C 196.167,176.5 188.833,183.5 181.5,190.5C 125.167,190.5 68.8333,190.5 12.5,190.5C 13.5469,171.854 14.2136,153.187 14.5,134.5 Z"/></g>
<g><path style="opacity:0.998" fill="#d7eeff" d="M 284.5,134.5 C 355.212,134.84 425.879,135.84 496.5,137.5C 496.929,156.178 497.596,174.845 498.5,193.5C 497.596,192.791 497.263,191.791 497.5,190.5C 441.5,190.5 385.5,190.5 329.5,190.5C 322.167,183.5 314.833,176.5 307.5,169.5C 299.833,161.167 291.833,153.167 283.5,145.5C 282.71,144.206 281.71,143.039 280.5,142C 281.752,139.367 283.086,136.867 284.5,134.5 Z"/></g>
<g><path style="opacity:1" fill="#3d7aff" d="M 227.5,145.5 C 246.167,146.833 264.833,146.833 283.5,145.5C 291.833,153.167 299.833,161.167 307.5,169.5C 300.687,170.491 293.687,170.825 286.5,170.5C 280.52,164.855 274.52,159.188 268.5,153.5C 259.807,157.459 251.14,157.459 242.5,153.5C 236.48,159.188 230.48,164.855 224.5,170.5C 217.313,170.825 210.313,170.491 203.5,169.5C 211.167,161.167 219.167,153.167 227.5,145.5 Z"/></g>
<g><path style="opacity:1" fill="#3781ff" d="M 203.5,169.5 C 210.313,170.491 217.313,170.825 224.5,170.5C 215.801,180.2 206.467,189.2 196.5,197.5C 189.646,197.824 182.979,197.491 176.5,196.5C 178.167,194.5 179.833,192.5 181.5,190.5C 188.833,183.5 196.167,176.5 203.5,169.5 Z"/></g>
<g><path style="opacity:1" fill="#3781ff" d="M 307.5,169.5 C 314.833,176.5 322.167,183.5 329.5,190.5C 331.5,192.833 333.5,195.167 335.5,197.5C 328.5,197.5 321.5,197.5 314.5,197.5C 304.533,189.2 295.199,180.2 286.5,170.5C 293.687,170.825 300.687,170.491 307.5,169.5 Z"/></g>
<g><path style="opacity:1" fill="#d2ebff" d="M 286.5,170.5 C 295.199,180.2 304.533,189.2 314.5,197.5C 321.833,205.5 329.5,213.167 337.5,220.5C 342.297,225.798 347.297,230.965 352.5,236C 287.833,236.667 223.167,236.667 158.5,236C 163.703,230.965 168.703,225.798 173.5,220.5C 181.5,213.167 189.167,205.5 196.5,197.5C 206.467,189.2 215.801,180.2 224.5,170.5C 230.48,164.855 236.48,159.188 242.5,153.5C 251.14,157.459 259.807,157.459 268.5,153.5C 274.52,159.188 280.52,164.855 286.5,170.5 Z"/></g>
<g><path style="opacity:0.998" fill="#d1ebff" d="M 12.5,190.5 C 68.8333,190.5 125.167,190.5 181.5,190.5C 179.833,192.5 178.167,194.5 176.5,196.5C 168.474,204.194 160.474,211.861 152.5,219.5C 146.702,224.797 141.035,230.297 135.5,236C 125.705,235.11 117.039,237.61 109.5,243.5C 108.5,244.167 107.5,244.833 106.5,245.5C 75.1667,245.5 43.8333,245.5 12.5,245.5C 12.5,227.167 12.5,208.833 12.5,190.5 Z"/></g>
<g><path style="opacity:0.998" fill="#d1ebff" d="M 329.5,190.5 C 385.5,190.5 441.5,190.5 497.5,190.5C 497.263,191.791 497.596,192.791 498.5,193.5C 498.5,210.833 498.5,228.167 498.5,245.5C 467.167,245.5 435.833,245.5 404.5,245.5C 403.5,244.833 402.5,244.167 401.5,243.5C 399.572,241.526 397.239,240.026 394.5,239C 388.327,237.068 381.994,236.068 375.5,236C 369.965,230.297 364.298,224.797 358.5,219.5C 350.86,212.194 343.193,204.861 335.5,197.5C 333.5,195.167 331.5,192.833 329.5,190.5 Z"/></g>
<g><path style="opacity:1" fill="#2f86ff" d="M 176.5,196.5 C 182.979,197.491 189.646,197.824 196.5,197.5C 189.167,205.5 181.5,213.167 173.5,220.5C 166.313,220.825 159.313,220.491 152.5,219.5C 160.474,211.861 168.474,204.194 176.5,196.5 Z"/></g>
<g><path style="opacity:1" fill="#3087ff" d="M 314.5,197.5 C 321.5,197.5 328.5,197.5 335.5,197.5C 343.193,204.861 350.86,212.194 358.5,219.5C 351.687,220.491 344.687,220.825 337.5,220.5C 329.5,213.167 321.833,205.5 314.5,197.5 Z"/></g>
<g><path style="opacity:1" fill="#3090ff" d="M 152.5,219.5 C 159.313,220.491 166.313,220.825 173.5,220.5C 168.703,225.798 163.703,230.965 158.5,236C 223.167,236.667 287.833,236.667 352.5,236C 347.297,230.965 342.297,225.798 337.5,220.5C 344.687,220.825 351.687,220.491 358.5,219.5C 364.298,224.797 369.965,230.297 375.5,236C 381.994,236.068 388.327,237.068 394.5,239C 397.239,240.026 399.572,241.526 401.5,243.5C 304.167,244.833 206.833,244.833 109.5,243.5C 117.039,237.61 125.705,235.11 135.5,236C 141.035,230.297 146.702,224.797 152.5,219.5 Z"/></g>
<g><path style="opacity:1" fill="#2690ff" d="M 109.5,243.5 C 206.833,244.833 304.167,244.833 401.5,243.5C 402.5,244.167 403.5,244.833 404.5,245.5C 406.226,247.228 407.559,249.228 408.5,251.5C 306.5,252.833 204.5,252.833 102.5,251.5C 103.441,249.228 104.774,247.228 106.5,245.5C 107.5,244.833 108.5,244.167 109.5,243.5 Z"/></g>
<g><path style="opacity:0.998" fill="#cbe8ff" d="M 12.5,245.5 C 43.8333,245.5 75.1667,245.5 106.5,245.5C 104.774,247.228 103.441,249.228 102.5,251.5C 100,254.66 98.6667,258.327 98.5,262.5C 97.5042,276.323 97.1709,290.323 97.5,304.5C 69.1667,304.5 40.8333,304.5 12.5,304.5C 12.5,284.833 12.5,265.167 12.5,245.5 Z"/></g>
<g><path style="opacity:0.999" fill="#cbe8ff" d="M 404.5,245.5 C 435.833,245.5 467.167,245.5 498.5,245.5C 498.5,264.167 498.5,282.833 498.5,301.5C 497.596,302.209 497.263,303.209 497.5,304.5C 469.5,304.5 441.5,304.5 413.5,304.5C 413.829,290.323 413.496,276.323 412.5,262.5C 412.333,258.327 411,254.66 408.5,251.5C 407.559,249.228 406.226,247.228 404.5,245.5 Z"/></g>
<g><path style="opacity:1" fill="#2493ff" d="M 102.5,251.5 C 204.5,252.833 306.5,252.833 408.5,251.5C 411,254.66 412.333,258.327 412.5,262.5C 412.5,264.167 412.5,265.833 412.5,267.5C 307.833,267.5 203.167,267.5 98.5,267.5C 98.5,265.833 98.5,264.167 98.5,262.5C 98.6667,258.327 100,254.66 102.5,251.5 Z"/></g>
<g><path style="opacity:0.996" fill="#c4e6ff" d="M 498.5,301.5 C 498.166,322.846 497.5,344.179 496.5,365.5C 468.833,365.5 441.167,365.5 413.5,365.5C 413.5,345.167 413.5,324.833 413.5,304.5C 441.5,304.5 469.5,304.5 497.5,304.5C 497.263,303.209 497.596,302.209 498.5,301.5 Z"/></g>
<g><path style="opacity:0.997" fill="#c4e6ff" d="M 12.5,304.5 C 40.8333,304.5 69.1667,304.5 97.5,304.5C 97.5,324.833 97.5,345.167 97.5,365.5C 69.8333,365.5 42.1667,365.5 14.5,365.5C 13.5718,345.177 12.9051,324.844 12.5,304.5 Z"/></g>
<g><path style="opacity:0.997" fill="#bde2ff" d="M 98.5,262.5 C 98.5,264.167 98.5,265.833 98.5,267.5C 98.5,276.5 98.5,285.5 98.5,294.5C 98.5,302.5 98.5,310.5 98.5,318.5C 98.5,326.167 98.5,333.833 98.5,341.5C 98.5,349.5 98.5,357.5 98.5,365.5C 98.5,367.5 98.5,369.5 98.5,371.5C 97.92,378.011 99.42,384.011 103,389.5C 104.039,390.71 105.206,391.71 106.5,392.5C 110.423,397.9 115.756,401.066 122.5,402C 210.833,402.667 299.167,402.667 387.5,402C 394.402,400.886 400.068,397.72 404.5,392.5C 408.238,389.374 410.738,385.374 412,380.5C 412.498,377.518 412.665,374.518 412.5,371.5C 412.5,369.5 412.5,367.5 412.5,365.5C 412.5,357.5 412.5,349.5 412.5,341.5C 412.5,333.833 412.5,326.167 412.5,318.5C 412.5,310.5 412.5,302.5 412.5,294.5C 412.5,285.5 412.5,276.5 412.5,267.5C 412.5,265.833 412.5,264.167 412.5,262.5C 413.496,276.323 413.829,290.323 413.5,304.5C 413.5,324.833 413.5,345.167 413.5,365.5C 441.167,365.5 468.833,365.5 496.5,365.5C 496.066,379.522 495.232,393.522 494,407.5C 493.386,412.11 492.22,416.443 490.5,420.5C 333.833,420.5 177.167,420.5 20.5,420.5C 18.7803,416.443 17.6137,412.11 17,407.5C 15.7678,393.522 14.9345,379.522 14.5,365.5C 42.1667,365.5 69.8333,365.5 97.5,365.5C 97.5,345.167 97.5,324.833 97.5,304.5C 97.1709,290.323 97.5042,276.323 98.5,262.5 Z"/></g>
<g><path style="opacity:1" fill="#15acff" d="M 322.5,285.5 C 322.333,308.502 322.5,331.502 323,354.5C 325.665,359.434 329.498,360.601 334.5,358C 336.141,356.871 337.141,355.371 337.5,353.5C 338.167,343.5 338.833,333.5 339.5,323.5C 345.105,335.209 351.105,346.709 357.5,358C 361.999,360.367 365.832,359.533 369,355.5C 370.379,350.964 370.879,346.297 370.5,341.5C 384.5,341.5 398.5,341.5 412.5,341.5C 412.5,349.5 412.5,357.5 412.5,365.5C 307.833,365.5 203.167,365.5 98.5,365.5C 98.5,357.5 98.5,349.5 98.5,341.5C 112.5,341.5 126.5,341.5 140.5,341.5C 140.5,340.5 140.5,339.5 140.5,338.5C 145.033,354.937 155.699,361.437 172.5,358C 181.186,355.313 186.353,349.479 188,340.5C 188.5,327.171 188.667,313.837 188.5,300.5C 189.49,306.31 189.823,312.31 189.5,318.5C 194.5,318.5 199.5,318.5 204.5,318.5C 204.333,330.171 204.5,341.838 205,353.5C 209.579,361.1 214.579,361.433 220,354.5C 220.17,345.324 220.67,336.324 221.5,327.5C 221.5,332.5 221.5,337.5 221.5,342.5C 237.167,342.5 252.833,342.5 268.5,342.5C 267.237,349.016 268.904,354.516 273.5,359C 282.5,359.667 291.5,359.667 300.5,359C 307.466,355.154 308.133,350.487 302.5,345C 296.621,343.59 290.621,343.09 284.5,343.5C 284.179,337.974 284.512,332.64 285.5,327.5C 285.5,332.5 285.5,337.5 285.5,342.5C 297.5,342.5 309.5,342.5 321.5,342.5C 321.5,334.5 321.5,326.5 321.5,318.5C 321.5,310.5 321.5,302.5 321.5,294.5C 321.19,291.287 321.523,288.287 322.5,285.5 Z"/></g>
<g><path style="opacity:1" fill="#15a5ff" d="M 370.5,318.5 C 384.5,318.5 398.5,318.5 412.5,318.5C 412.5,326.167 412.5,333.833 412.5,341.5C 398.5,341.5 384.5,341.5 370.5,341.5C 370.5,333.833 370.5,326.167 370.5,318.5 Z"/></g>
<g><path style="opacity:1" fill="#15a6ff" d="M 306.5,318.5 C 311.5,318.5 316.5,318.5 321.5,318.5C 321.5,326.5 321.5,334.5 321.5,342.5C 309.5,342.5 297.5,342.5 285.5,342.5C 285.5,337.5 285.5,332.5 285.5,327.5C 290.511,327.666 295.511,327.499 300.5,327C 304.276,325.395 306.276,322.562 306.5,318.5 Z"/></g>
<g><path style="opacity:1" fill="#17a4ff" d="M 251.5,294.5 C 257.167,294.5 262.833,294.5 268.5,294.5C 268.5,310.5 268.5,326.5 268.5,342.5C 252.833,342.5 237.167,342.5 221.5,342.5C 221.5,337.5 221.5,332.5 221.5,327.5C 244.805,328.53 254.805,317.53 251.5,294.5 Z"/></g>
<g><path style="opacity:1" fill="#15a5ff" d="M 98.5,318.5 C 112.5,318.5 126.5,318.5 140.5,318.5C 140.5,325.167 140.5,331.833 140.5,338.5C 140.5,339.5 140.5,340.5 140.5,341.5C 126.5,341.5 112.5,341.5 98.5,341.5C 98.5,333.833 98.5,326.167 98.5,318.5 Z"/></g>
<g><path style="opacity:1" fill="#c4e5ff" d="M 352.5,314.5 C 352.783,315.289 353.283,315.956 354,316.5C 354.5,306.172 354.666,295.839 354.5,285.5C 356.871,279.819 360.871,278.319 366.5,281C 370.096,284.735 371.429,289.235 370.5,294.5C 370.5,302.5 370.5,310.5 370.5,318.5C 370.5,326.167 370.5,333.833 370.5,341.5C 370.879,346.297 370.379,350.964 369,355.5C 365.832,359.533 361.999,360.367 357.5,358C 351.105,346.709 345.105,335.209 339.5,323.5C 339.217,322.711 338.717,322.044 338,321.5C 337.5,332.161 337.333,342.828 337.5,353.5C 337.141,355.371 336.141,356.871 334.5,358C 329.498,360.601 325.665,359.434 323,354.5C 322.5,331.502 322.333,308.502 322.5,285.5C 326.34,278.435 331.173,277.769 337,283.5C 342.18,293.86 347.347,304.193 352.5,314.5 Z"/></g>
<g><path style="opacity:1" fill="#87d0ff" d="M 339.5,323.5 C 338.833,333.5 338.167,343.5 337.5,353.5C 337.333,342.828 337.5,332.161 338,321.5C 338.717,322.044 339.217,322.711 339.5,323.5 Z"/></g>
<g><path style="opacity:1" fill="#c3e5ff" d="M 303.5,293.5 C 297.382,295.365 291.048,296.032 284.5,295.5C 284.5,300.833 284.5,306.167 284.5,311.5C 289.844,311.334 295.177,311.501 300.5,312C 303.386,313.385 305.386,315.551 306.5,318.5C 306.276,322.562 304.276,325.395 300.5,327C 295.511,327.499 290.511,327.666 285.5,327.5C 284.512,332.64 284.179,337.974 284.5,343.5C 290.621,343.09 296.621,343.59 302.5,345C 308.133,350.487 307.466,355.154 300.5,359C 291.5,359.667 282.5,359.667 273.5,359C 268.904,354.516 267.237,349.016 268.5,342.5C 268.5,326.5 268.5,310.5 268.5,294.5C 267.81,281.372 273.976,276.372 287,279.5C 292.275,279.384 297.442,279.884 302.5,281C 307.349,284.869 307.682,289.036 303.5,293.5 Z"/></g>
<g><path style="opacity:1" fill="#c4e5ff" d="M 251.5,294.5 C 254.805,317.53 244.805,328.53 221.5,327.5C 220.67,336.324 220.17,345.324 220,354.5C 214.579,361.433 209.579,361.1 205,353.5C 204.5,341.838 204.333,330.171 204.5,318.5C 204.5,310.5 204.5,302.5 204.5,294.5C 203.636,281.871 209.469,276.871 222,279.5C 235.447,277.805 245.28,282.805 251.5,294.5 Z"/></g>
<g><path style="opacity:1" fill="#c3e5ff" d="M 187.5,294.5 C 188.15,296.435 188.483,298.435 188.5,300.5C 188.667,313.837 188.5,327.171 188,340.5C 186.353,349.479 181.186,355.313 172.5,358C 155.699,361.437 145.033,354.937 140.5,338.5C 140.5,331.833 140.5,325.167 140.5,318.5C 140.334,311.825 140.5,305.158 141,298.5C 141.41,297.099 141.91,295.766 142.5,294.5C 150.563,279.805 162.23,275.972 177.5,283C 181.894,285.984 185.227,289.817 187.5,294.5 Z"/></g>
<g><path style="opacity:1" fill="#20a7ff" d="M 157.5,301.5 C 157.5,307.167 157.5,312.833 157.5,318.5C 162.5,318.5 167.5,318.5 172.5,318.5C 172.929,325.947 172.429,333.281 171,340.5C 166.291,344.769 161.958,344.436 158,339.5C 156.871,332.936 156.371,326.269 156.5,319.5C 156.5,313.324 156.834,307.324 157.5,301.5 Z"/></g>
<g><path style="opacity:1" fill="#23a0ff" d="M 220.5,295.5 C 224.182,295.335 227.848,295.501 231.5,296C 237.377,299.804 238.044,304.471 233.5,310C 229.27,311.29 224.936,311.79 220.5,311.5C 220.5,306.167 220.5,300.833 220.5,295.5 Z"/></g>
<g><path style="opacity:1" fill="#1ca0ff" d="M 172.5,318.5 C 167.5,318.5 162.5,318.5 157.5,318.5C 157.5,312.833 157.5,307.167 157.5,301.5C 161.243,294.295 166.077,293.628 172,299.5C 172.5,305.825 172.666,312.158 172.5,318.5 Z"/></g>
<g><path style="opacity:1" fill="#1a9fff" d="M 370.5,294.5 C 384.5,294.5 398.5,294.5 412.5,294.5C 412.5,302.5 412.5,310.5 412.5,318.5C 398.5,318.5 384.5,318.5 370.5,318.5C 370.5,310.5 370.5,302.5 370.5,294.5 Z"/></g>
<g><path style="opacity:1" fill="#54b6ff" d="M 354.5,285.5 C 354.666,295.839 354.5,306.172 354,316.5C 353.283,315.956 352.783,315.289 352.5,314.5C 353.167,304.833 353.833,295.167 354.5,285.5 Z"/></g>
<g><path style="opacity:1" fill="#1e9fff" d="M 303.5,293.5 C 309.31,294.49 315.31,294.823 321.5,294.5C 321.5,302.5 321.5,310.5 321.5,318.5C 316.5,318.5 311.5,318.5 306.5,318.5C 305.386,315.551 303.386,313.385 300.5,312C 295.177,311.501 289.844,311.334 284.5,311.5C 284.5,306.167 284.5,300.833 284.5,295.5C 291.048,296.032 297.382,295.365 303.5,293.5 Z"/></g>
<g><path style="opacity:1" fill="#1a9fff" d="M 187.5,294.5 C 193.167,294.5 198.833,294.5 204.5,294.5C 204.5,302.5 204.5,310.5 204.5,318.5C 199.5,318.5 194.5,318.5 189.5,318.5C 189.823,312.31 189.49,306.31 188.5,300.5C 188.483,298.435 188.15,296.435 187.5,294.5 Z"/></g>
<g><path style="opacity:1" fill="#1a9fff" d="M 98.5,294.5 C 113.167,294.5 127.833,294.5 142.5,294.5C 141.91,295.766 141.41,297.099 141,298.5C 140.5,305.158 140.334,311.825 140.5,318.5C 126.5,318.5 112.5,318.5 98.5,318.5C 98.5,310.5 98.5,302.5 98.5,294.5 Z"/></g>
<g><path style="opacity:1" fill="#2198ff" d="M 98.5,267.5 C 203.167,267.5 307.833,267.5 412.5,267.5C 412.5,276.5 412.5,285.5 412.5,294.5C 398.5,294.5 384.5,294.5 370.5,294.5C 371.429,289.235 370.096,284.735 366.5,281C 360.871,278.319 356.871,279.819 354.5,285.5C 353.833,295.167 353.167,304.833 352.5,314.5C 347.347,304.193 342.18,293.86 337,283.5C 331.173,277.769 326.34,278.435 322.5,285.5C 321.523,288.287 321.19,291.287 321.5,294.5C 315.31,294.823 309.31,294.49 303.5,293.5C 307.682,289.036 307.349,284.869 302.5,281C 297.442,279.884 292.275,279.384 287,279.5C 273.976,276.372 267.81,281.372 268.5,294.5C 262.833,294.5 257.167,294.5 251.5,294.5C 245.28,282.805 235.447,277.805 222,279.5C 209.469,276.871 203.636,281.871 204.5,294.5C 198.833,294.5 193.167,294.5 187.5,294.5C 185.227,289.817 181.894,285.984 177.5,283C 162.23,275.972 150.563,279.805 142.5,294.5C 127.833,294.5 113.167,294.5 98.5,294.5C 98.5,285.5 98.5,276.5 98.5,267.5 Z"/></g>
<g><path style="opacity:1" fill="#0dafff" d="M 98.5,365.5 C 203.167,365.5 307.833,365.5 412.5,365.5C 412.5,367.5 412.5,369.5 412.5,371.5C 307.833,371.5 203.167,371.5 98.5,371.5C 98.5,369.5 98.5,367.5 98.5,365.5 Z"/></g>
<g><path style="opacity:1" fill="#0ab2ff" d="M 98.5,371.5 C 203.167,371.5 307.833,371.5 412.5,371.5C 412.665,374.518 412.498,377.518 412,380.5C 410.738,385.374 408.238,389.374 404.5,392.5C 305.167,392.5 205.833,392.5 106.5,392.5C 105.206,391.71 104.039,390.71 103,389.5C 99.42,384.011 97.92,378.011 98.5,371.5 Z"/></g>
<g><path style="opacity:1" fill="#14b8ff" d="M 106.5,392.5 C 205.833,392.5 305.167,392.5 404.5,392.5C 400.068,397.72 394.402,400.886 387.5,402C 299.167,402.667 210.833,402.667 122.5,402C 115.756,401.066 110.423,397.9 106.5,392.5 Z"/></g>
<g><path style="opacity:0.998" fill="#b9e1ff" d="M 20.5,420.5 C 177.167,420.5 333.833,420.5 490.5,420.5C 486.952,434.934 480.285,447.601 470.5,458.5C 326.903,457.502 183.237,457.168 39.5,457.5C 30.279,446.726 23.9456,434.393 20.5,420.5 Z"/></g>
<g><path style="opacity:0.985" fill="#b5dfff" d="M 39.5,457.5 C 183.237,457.168 326.903,457.502 470.5,458.5C 455.082,476.384 435.748,487.884 412.5,493C 393.57,495.187 374.57,496.521 355.5,497C 298.842,498.524 242.175,498.857 185.5,498C 158.136,497.245 130.803,495.912 103.5,494C 77.6152,489.574 56.2818,477.407 39.5,457.5 Z"/></g>
</svg>
